<?xml version="1.0" standalone="no"?>
<!DOCTYPE svg PUBLIC "-//W3C//DTD SVG 20010904//EN"
 "http://www.w3.org/TR/2001/REC-SVG-20010904/DTD/svg10.dtd">
<svg version="1.0" xmlns="http://www.w3.org/2000/svg"
 width="360.000000pt" height="360.000000pt" viewBox="0 0 360.000000 360.000000"
 preserveAspectRatio="xMidYMid meet">
<metadata>
Created by potrace 1.14, written by Peter Selinger 2001-2017
</metadata>
<g transform="translate(0.000000,360.000000) scale(0.100000,-0.100000)"
fill="#000000" stroke="none">
<path d="M1638 2120 c-77 -23 -288 -166 -341 -231 -16 -19 -38 -50 -51 -69
-12 -19 -33 -39 -48 -44 -23 -8 -32 -4 -74 33 -83 73 -94 70 -269 -56 -151
-109 -517 -383 -512 -383 15 0 194 78 253 111 39 21 84 39 100 39 62 0 103 20
141 68 21 26 63 73 94 104 79 82 101 80 217 -19 55 -46 182 -122 182 -109 0 3
-14 28 -32 56 -35 57 -32 77 15 94 23 8 33 2 105 -65 90 -84 190 -145 312
-190 l85 -30 -57 50 c-101 91 -196 226 -233 331 l-16 45 48 -46 c44 -42 111
-89 127 -89 4 0 -4 15 -18 33 -37 49 -56 104 -56 164 0 58 13 93 33 93 7 0 36
-18 65 -39 29 -22 60 -42 70 -46 9 -3 28 -23 41 -45 13 -21 51 -65 84 -97 53
-51 58 -54 40 -23 -32 54 -47 110 -34 123 18 18 57 -11 119 -87 66 -82 100
-116 161 -159 l45 -31 -22 36 c-32 51 -28 64 11 39 107 -71 286 -141 402 -157
l50 -7 -67 71 c-38 38 -68 73 -68 76 0 4 24 -11 53 -33 108 -82 288 -164 487
-224 183 -55 184 -52 10 35 -249 125 -381 220 -476 343 l-30 39 -65 -12 c-85
-16 -169 -41 -169 -51 0 -4 11 -20 26 -36 14 -15 23 -29 21 -31 -10 -10 -78
51 -99 88 -22 41 -26 43 -90 55 -87 16 -123 35 -153 82 -31 49 -32 50 -118 68
-88 18 -108 29 -175 92 -54 52 -71 57 -124 41z"/>
</g>
</svg>
